<?xml version="1.0" encoding="UTF-8"?><svg id="icon" xmlns="http://www.w3.org/2000/svg" viewBox="0 0 181.83 35.57"><defs><style>.cls-1{fill:#2f6eec;}.cls-2{isolation:isolate;}.cls-3{fill:#4a5567;}</style></defs><path class="cls-3" d="M74.63,34.93h4.6V8.83h-4.6v11.8h-12.6v-11.8h-4.6v26.1h4.6v-10.3h12.9v10.3s-.3,0-.3,0Z"/><path class="cls-3" d="M94.13,29.83h11.2l2.3,5.2h4.9l-12.3-26.4h-.9l-12.3,26.4h4.9l2.3-5.2h-.1ZM99.63,16.93l4,8.9h-8l4-8.9h0Z"/><path class="cls-3" d="M151.73,8.63h-5.2l-4.9,16.6-7.2-16.9h-1.4l-7.2,16.9-4.9-16.6h-5.2l8.3,26.7h1.4l8-17.8,8,17.8h1.7l8.3-26.7h.3Z"/><path class="cls-3" d="M160.03,34.93h4.6v-11.2l11.5,11.2h5.7l-12.6-12.3,12-13.8h-5.7l-11.2,12.9v-12.9h-4.6l.3,26.1h0Z"/><g class="cls-2"><g class="cls-2"><path class="cls-1" d="M57.66.45c0-.07.06-.14.13-.14h1.78c1.41,0,2.57,1.15,2.57,2.55s-1.15,2.57-2.57,2.57h-1.78c-.07,0-.13-.07-.13-.14V.45ZM59.5,4.34c.83,0,1.43-.65,1.43-1.48s-.6-1.48-1.43-1.48h-.7v2.96h.7Z"/><path class="cls-1" d="M71.1,5.24l2.29-4.92s.07-.08.12-.08h.07c.05,0,.1.04.12.08l2.29,4.92c.04.09-.01.19-.12.19h-.81c-.13,0-.19-.04-.26-.18l-.26-.58h-1.99l-.26.58c-.04.09-.12.18-.26.18h-.8c-.11,0-.17-.1-.12-.19ZM74.1,3.67l-.56-1.21h0l-.55,1.21h1.11Z"/><path class="cls-1" d="M85.77,1.38h-1.04c-.08,0-.14-.07-.14-.14V.45c0-.07.06-.14.14-.14h3.25c.08,0,.14.07.14.14v.8c0,.07-.06.14-.14.14h-1.04v3.9c0,.07-.07.14-.14.14h-.88c-.07,0-.14-.07-.14-.14V1.38Z"/><path class="cls-1" d="M96.7,5.24l2.29-4.92s.07-.08.12-.08h.07c.05,0,.1.04.12.08l2.29,4.92c.04.09-.01.19-.12.19h-.81c-.13,0-.19-.04-.26-.18l-.26-.58h-1.99l-.26.58c-.04.09-.12.18-.26.18h-.8c-.11,0-.17-.1-.12-.19ZM99.7,3.67l-.56-1.21h0l-.55,1.21h1.11Z"/><path class="cls-1" d="M113.19.24c.73,0,1.27.23,1.77.68.07.06.07.15,0,.2l-.57.59c-.05.05-.13.05-.18,0-.27-.24-.63-.37-.99-.37-.83,0-1.43.69-1.43,1.51s.61,1.48,1.44,1.48c.34,0,.72-.12.98-.35.05-.04.15-.04.19,0l.57.61c.05.05.04.15,0,.2-.5.48-1.13.71-1.78.71-1.46,0-2.64-1.16-2.64-2.62s1.18-2.64,2.64-2.64Z"/><path class="cls-1" d="M124.63.45c0-.07.06-.14.14-.14h3.03c.08,0,.14.07.14.14v.8c0,.07-.06.14-.14.14h-2.02v.91h1.67c.07,0,.14.07.14.14v.8c0,.08-.07.14-.14.14h-1.67v.99h2.02c.08,0,.14.07.14.14v.8c0,.07-.06.14-.14.14h-3.03c-.08,0-.14-.07-.14-.14V.45Z"/><path class="cls-1" d="M137.68.37c0-.07.07-.13.14-.13h.18l2.92,2.81h0V.45c0-.07.06-.14.14-.14h.88c.07,0,.14.07.14.14v4.92c0,.07-.07.13-.14.13h-.12s-.08-.02-.09-.04l-2.89-2.9h0v2.73c0,.07-.06.14-.14.14h-.87c-.07,0-.14-.07-.14-.14V.37Z"/><path class="cls-1" d="M152.78,1.38h-1.04c-.08,0-.14-.07-.14-.14V.45c0-.07.06-.14.14-.14h3.25c.08,0,.14.07.14.14v.8c0,.07-.06.14-.14.14h-1.04v3.9c0,.07-.07.14-.14.14h-.88c-.07,0-.14-.07-.14-.14V1.38Z"/><path class="cls-1" d="M164.63.45c0-.07.06-.14.14-.14h3.03c.08,0,.14.07.14.14v.8c0,.07-.06.14-.14.14h-2.02v.91h1.67c.07,0,.14.07.14.14v.8c0,.08-.07.14-.14.14h-1.67v.99h2.02c.08,0,.14.07.14.14v.8c0,.07-.06.14-.14.14h-3.03c-.08,0-.14-.07-.14-.14V.45Z"/><path class="cls-1" d="M177.69.45c0-.07.06-.14.14-.14h2.19c.88,0,1.59.71,1.59,1.58,0,.67-.45,1.21-1.08,1.47l1,1.86c.05.09,0,.21-.12.21h-.97c-.06,0-.1-.04-.12-.07l-.97-1.94h-.5v1.86c0,.07-.07.14-.14.14h-.87c-.08,0-.14-.07-.14-.14V.45ZM179.92,2.5c.3,0,.56-.28.56-.58s-.26-.56-.56-.56h-1.08v1.14h1.08Z"/></g></g><path class="cls-3" d="M0,23.88c5.23-1.31,8.28-3.59,15.36-11.56C19.94,7.21,23.76,3.06,30.3,1.09c8.61-2.51,15.15-.33,20.49,2.72,0,0-3.82.21-5.45,1.08.21,0,6,2.18,7.63,7.08,0,0-11.12-8.51-23-4.36-11.44,3.92-16.35,13.74-24.53,16.46C1.53,25.4,0,23.87,0,23.87h0Z"/><path class="cls-3" d="M41.32,10.7c-1.2-.44-2.51-.66-3.82-.54,1.64,2.39,2.62,5.23,2.62,8.18,0,7.85-6.33,14.28-14.17,14.28-2.72,0-5.34-.77-7.63-2.29s-4.15-3.59-5.23-6.21c-.77.66-1.64,1.2-2.51,1.64,1.41,2.94,3.59,5.45,6.33,7.2s5.89,2.62,9.05,2.62c9.48,0,17.12-7.74,17.12-17.33,0-2.62-.66-5.23-1.74-7.52h-.03Z"/><path class="cls-1" d="M36.63,17.13h0c-.11-.77-.44-1.74-.77-2.62-.11-.11-.21,0-.21,0-.33.98-1.41,1.64-2.51,1.64-.54,0-.98-.11-1.41-.44-.44-.33-.77-.66-1.08-1.08-.21-.44-.33-.98-.33-1.53s.11-.98.44-1.53c0-.11,0-.21-.11-.21s-1.97.87-3.05,1.31h0c-3.92,1.97-6.87,4.69-9.81,7.41-.66.66-1.41,1.31-2.07,1.85.77,2.18,2.18,4.03,3.92,5.34,1.97,1.31,4.03,1.97,6.33,1.97,6,0,10.79-4.9,10.79-10.9,0-.44,0-.87-.11-1.2h-.01Z"/></svg>